<?xml version="1.0" standalone="no"?>
<!DOCTYPE svg PUBLIC "-//W3C//DTD SVG 20010904//EN"
 "http://www.w3.org/TR/2001/REC-SVG-20010904/DTD/svg10.dtd">
<svg version="1.0" xmlns="http://www.w3.org/2000/svg"
 width="756.000000pt" height="756.000000pt" viewBox="0 0 756.000000 756.000000"
 preserveAspectRatio="xMidYMid meet">
<metadata>
Created by potrace 1.11, written by Peter Selinger 2001-2013
</metadata>
<g transform="translate(0.000000,756.000000) scale(0.100000,-0.100000)"
fill="#000000" stroke="none">
<path d="M2676 6321 c-4 -6 -14 -7 -22 -4 -9 3 -20 0 -25 -8 -7 -12 -9 -12 -9
1 0 13 -1 13 -10 0 -5 -8 -13 -15 -17 -15 -17 -1 -63 -38 -63 -52 0 -8 -5 -11
-11 -7 -8 5 -8 1 0 -14 6 -11 11 -23 11 -27 0 -3 -5 -3 -11 1 -8 4 -8 0 0 -15
7 -11 9 -21 6 -21 -8 0 29 -65 48 -84 9 -10 21 -14 27 -11 5 3 10 -1 10 -10 0
-8 8 -19 18 -22 9 -4 29 -19 44 -35 14 -15 32 -28 39 -28 7 0 10 -3 6 -6 -8
-8 18 -34 33 -34 6 0 8 -4 5 -10 -3 -5 -3 -10 2 -10 8 0 36 -54 33 -66 -1 -4
3 -10 9 -13 6 -4 12 -19 13 -34 1 -15 6 -27 10 -27 4 0 8 -22 8 -50 0 -27 3
-50 8 -50 4 0 7 -11 7 -25 0 -14 -2 -25 -5 -25 -3 0 -5 -11 -5 -25 0 -14 3
-25 8 -25 4 0 7 -5 7 -11 0 -5 -5 -7 -11 -3 -7 4 -7 -1 1 -16 7 -12 8 -20 2
-16 -6 3 -12 -10 -14 -30 -2 -19 0 -38 5 -41 6 -3 2 -12 -7 -19 -11 -8 -13
-14 -7 -19 8 -4 8 -12 1 -25 -7 -13 -6 -20 3 -23 9 -4 9 -6 0 -6 -7 -1 -10 -8
-6 -18 4 -9 2 -14 -3 -10 -5 3 -9 -7 -8 -21 1 -15 -3 -33 -9 -39 -6 -9 -6 -13
3 -13 10 0 10 -3 0 -15 -7 -8 -10 -22 -6 -30 3 -8 1 -15 -4 -15 -5 0 -7 -11
-4 -25 2 -14 0 -25 -5 -25 -5 0 -8 -8 -6 -17 1 -10 -2 -24 -8 -30 -5 -7 -6
-13 -1 -13 12 0 -28 -35 -49 -43 -11 -4 -15 -12 -11 -18 4 -8 3 -9 -4 -5 -11
7 -51 -11 -63 -28 -4 -5 -12 -5 -19 -1 -9 5 -11 4 -6 -3 6 -10 -6 -17 -18 -9
-2 1 -13 -7 -25 -17 -12 -11 -21 -16 -21 -11 0 4 -6 2 -13 -4 -8 -6 -17 -8
-20 -4 -4 3 -9 -2 -13 -11 -3 -9 -10 -13 -15 -10 -6 3 -17 0 -26 -8 -10 -8
-14 -8 -10 -1 5 7 -4 6 -23 -3 -16 -8 -39 -16 -50 -17 -11 -1 -20 -4 -20 -8 0
-3 -11 -5 -25 -4 -14 2 -27 -1 -30 -5 -3 -5 -17 -7 -31 -4 -14 3 -23 1 -20 -4
3 -5 -15 -7 -39 -5 -33 3 -45 1 -45 -9 0 -10 -2 -10 -9 1 -8 12 -12 12 -24 2
-10 -8 -17 -9 -22 -1 -9 14 -42 13 -48 -2 -4 -10 -6 -10 -6 0 -1 6 -12 12 -26
12 -14 0 -25 -6 -25 -12 0 -8 -3 -9 -8 -3 -4 6 -18 12 -32 14 -14 2 -30 4 -37
5 -7 1 -16 5 -19 9 -4 4 -14 1 -22 -6 -13 -9 -14 -9 -8 1 4 7 2 12 -6 13 -7 0
-24 3 -38 5 -73 12 -104 -6 -76 -45 9 -12 8 -13 -4 -6 -12 7 -13 6 -3 -7 7 -8
10 -18 6 -21 -3 -4 -1 -7 6 -7 7 0 9 -4 6 -10 -3 -5 -2 -10 3 -10 5 0 15 -13
22 -30 7 -16 16 -30 21 -30 5 0 9 -7 9 -15 0 -8 5 -15 10 -15 6 0 10 -4 10
-10 0 -5 9 -20 20 -32 10 -13 19 -26 20 -31 0 -4 13 -21 30 -39 16 -17 30 -35
30 -40 0 -15 27 -38 35 -30 5 4 6 0 2 -9 -3 -11 3 -21 18 -29 14 -7 23 -16 21
-19 -2 -3 6 -15 17 -26 11 -11 16 -14 12 -6 -5 9 -4 12 3 7 7 -4 12 -14 12
-23 0 -9 3 -14 6 -10 4 3 12 1 20 -6 32 -29 44 -37 44 -32 0 4 7 0 15 -7 33
-30 42 -35 58 -32 9 1 17 -2 17 -7 0 -5 7 -9 15 -9 8 0 15 -4 15 -8 0 -4 9 -9
20 -10 43 -4 50 -6 50 -13 0 -4 8 -8 18 -8 41 -1 58 -4 67 -12 6 -4 17 -4 24
0 8 5 25 5 40 1 14 -4 35 -4 47 0 17 7 20 4 19 -19 0 -14 -7 -37 -15 -51 -8
-14 -13 -28 -12 -32 1 -5 -3 -8 -9 -8 -6 0 -8 -7 -5 -16 3 -8 2 -13 -2 -10 -4
3 -14 -4 -21 -16 -10 -16 -10 -18 0 -12 7 4 4 -5 -7 -19 -10 -15 -22 -27 -26
-27 -5 0 -8 -4 -8 -9 0 -6 -11 -22 -25 -37 -13 -14 -22 -31 -19 -36 3 -4 0 -7
-8 -6 -7 2 -12 -3 -10 -9 1 -7 -6 -13 -15 -13 -9 0 -14 -3 -10 -6 6 -7 -60
-74 -74 -74 -5 0 -8 -3 -7 -7 2 -5 0 -9 -5 -10 -16 -5 -35 -28 -29 -37 3 -5 0
-6 -6 -2 -6 4 -20 -1 -30 -11 -27 -26 -62 -44 -71 -38 -5 3 -12 -2 -15 -11 -3
-9 -13 -14 -20 -11 -8 3 -17 -1 -20 -9 -3 -8 -15 -14 -26 -14 -11 0 -20 -5
-20 -11 0 -5 -4 -7 -10 -4 -5 3 -10 2 -10 -2 0 -5 -9 -14 -21 -21 -12 -8 -18
-9 -14 -3 3 6 2 11 -3 11 -6 0 -13 -7 -16 -16 -3 -8 -10 -12 -16 -9 -5 3 -10
1 -10 -5 0 -6 -4 -8 -10 -5 -5 3 -10 2 -10 -3 0 -10 -53 -36 -66 -32 -4 1 -10
-4 -15 -12 -5 -7 -14 -13 -21 -13 -7 -1 -12 -7 -10 -14 1 -7 -2 -10 -7 -7 -5
4 -16 0 -24 -8 -8 -8 -18 -12 -22 -8 -3 4 -12 0 -18 -9 -7 -9 -15 -17 -19 -18
-18 -4 -43 -15 -48 -21 -3 -3 -31 -19 -62 -35 -32 -17 -58 -34 -58 -38 0 -5
-4 -6 -9 -2 -5 3 -17 -2 -25 -11 -9 -8 -16 -12 -16 -7 0 4 -6 1 -13 -8 -7 -9
-16 -16 -20 -17 -4 0 -25 -11 -45 -23 -20 -13 -43 -22 -51 -20 -7 1 -10 -2 -6
-8 3 -6 -1 -11 -9 -11 -9 0 -16 -4 -16 -10 0 -5 -7 -7 -15 -4 -9 4 -15 0 -15
-8 0 -8 -7 -15 -15 -16 -8 -1 -21 -3 -29 -4 -8 -1 -12 -8 -8 -17 3 -9 1 -13
-3 -8 -9 8 -56 -19 -68 -39 -4 -7 -13 -11 -20 -8 -7 2 -22 -4 -34 -15 -11 -11
-24 -17 -27 -14 -3 4 -6 2 -6 -4 0 -9 -33 -24 -45 -20 -3 1 -12 -8 -20 -20 -9
-13 -23 -23 -31 -23 -8 0 -26 -11 -39 -24 -13 -13 -26 -21 -29 -18 -3 3 -6 -1
-6 -8 0 -7 -3 -10 -6 -7 -4 4 -15 -3 -25 -14 -9 -11 -20 -20 -23 -20 -21 3
-26 0 -20 -11 4 -7 3 -8 -5 -4 -6 4 -18 2 -26 -4 -8 -7 -15 -9 -15 -4 0 5 -5
1 -11 -9 -6 -9 -14 -15 -18 -13 -5 3 -22 1 -39 -3 -22 -7 -32 -6 -36 2 -3 9
-5 9 -5 0 -1 -6 -10 -9 -21 -6 -11 3 -17 10 -14 15 4 6 -3 5 -15 -1 -11 -7
-21 -8 -21 -3 0 5 -10 8 -23 7 -12 -1 -30 2 -41 7 -12 7 -16 7 -12 -1 4 -5 -3
-15 -14 -21 -16 -8 -18 -15 -11 -24 7 -9 7 -16 -1 -24 -9 -9 -9 -12 1 -12 10
0 11 -3 2 -14 -9 -11 -9 -16 0 -21 8 -6 7 -10 -2 -16 -8 -5 -9 -9 -4 -9 6 0
12 -12 13 -27 1 -15 5 -29 10 -32 7 -6 14 -28 15 -48 0 -7 4 -13 9 -13 4 0 8
-8 8 -17 0 -9 3 -13 7 -10 3 4 14 -7 24 -23 11 -17 24 -30 29 -30 6 0 8 -4 5
-10 -3 -5 -1 -10 5 -10 15 0 41 -26 33 -34 -4 -3 3 -6 15 -6 12 0 22 -4 22 -9
0 -8 37 -24 53 -22 4 1 7 -3 7 -9 0 -5 7 -6 17 -3 10 4 14 2 10 -4 -4 -6 9
-10 30 -11 20 -1 39 -6 43 -11 3 -6 11 -6 20 -1 8 5 21 5 31 -1 12 -6 19 -5
22 4 4 9 6 8 6 -2 1 -11 4 -11 16 -1 12 10 15 10 15 0 0 -9 4 -9 13 -3 6 6 24
10 40 9 15 -1 27 2 27 7 0 4 6 7 13 6 24 -3 38 1 33 10 -4 5 5 8 19 6 14 -1
25 2 25 7 0 5 5 6 10 3 6 -3 10 -2 10 3 0 5 14 15 30 22 17 7 30 17 30 22 0 5
5 6 12 2 7 -5 9 -2 6 7 -4 10 1 15 14 16 24 2 50 22 42 34 -3 5 2 9 11 9 10 0
13 5 9 12 -5 7 -3 8 6 3 7 -5 21 2 35 19 12 14 25 23 29 19 3 -3 6 -1 6 6 0 7
5 9 10 6 5 -3 10 2 10 11 0 10 3 14 6 11 4 -4 15 3 25 15 11 11 19 18 19 14 0
-4 13 5 30 21 47 44 57 52 64 46 3 -4 6 -1 6 5 0 7 7 12 16 12 8 0 12 5 9 10
-3 6 1 10 10 10 10 0 13 5 9 12 -4 6 -3 8 3 5 9 -6 23 3 73 45 8 7 18 12 22
11 5 -2 8 0 8 5 0 4 18 18 40 32 22 14 40 28 40 32 0 5 7 8 15 8 9 0 18 7 21
15 4 8 10 12 15 9 5 -3 12 2 15 10 3 9 12 16 20 16 8 0 14 5 14 10 0 6 3 9 8
9 19 -3 33 2 28 10 -3 5 8 14 24 21 17 7 30 17 30 22 0 5 5 6 10 3 6 -3 13 1
16 9 3 9 10 13 15 10 5 -3 9 -1 9 5 0 6 11 13 25 17 14 3 23 10 20 14 -3 4 9
13 25 20 17 7 30 17 30 22 0 5 5 6 10 3 6 -3 13 1 16 9 3 9 9 14 14 11 4 -2
17 5 28 16 12 11 22 16 22 12 0 -4 7 0 15 11 7 10 18 15 24 11 6 -3 11 -1 11
5 0 6 11 15 25 20 14 5 25 14 25 20 0 6 5 8 10 5 6 -3 10 -1 10 5 0 6 4 9 9 6
5 -3 12 1 15 10 3 8 10 13 15 9 5 -3 21 6 35 20 15 15 26 20 26 13 1 -7 6 -3
13 8 7 12 20 20 30 18 9 -1 15 2 11 7 -5 8 3 11 22 8 4 0 10 3 13 8 12 16 74
55 67 42 -4 -8 -2 -7 6 2 7 9 23 19 36 23 12 4 20 12 17 17 -3 5 1 6 9 3 9 -3
16 -2 16 4 0 5 19 17 42 27 23 9 48 24 56 33 7 9 11 11 7 5 -9 -18 3 -16 22 3
9 8 22 13 29 10 8 -3 11 0 7 10 -3 10 0 12 10 9 8 -4 21 0 28 8 8 7 20 12 27
9 6 -2 12 0 12 6 0 5 6 9 13 10 6 0 24 3 39 5 30 5 54 -15 42 -34 -4 -8 -3 -9
4 -5 7 4 12 3 12 -3 0 -5 -5 -13 -10 -16 -6 -4 -7 -11 -4 -17 4 -7 2 -8 -4 -4
-7 4 -12 3 -12 -2 0 -15 -80 -97 -91 -94 -6 1 -8 -1 -5 -6 3 -5 -4 -14 -14
-22 -10 -8 -17 -17 -14 -22 3 -4 0 -8 -5 -8 -6 0 -21 -11 -33 -25 -11 -13 -26
-21 -32 -18 -6 3 -8 3 -4 -1 11 -13 -29 -49 -44 -40 -7 4 -10 4 -6 -1 4 -4 -5
-21 -21 -36 -16 -15 -27 -30 -23 -33 3 -3 -2 -6 -11 -6 -10 0 -17 -5 -17 -11
0 -5 -4 -8 -8 -5 -5 3 -16 -6 -27 -20 -10 -13 -33 -34 -52 -45 -18 -11 -31
-25 -27 -30 3 -5 0 -9 -5 -9 -22 0 -26 -2 -34 -16 -4 -8 -15 -14 -22 -14 -8 0
-15 -7 -15 -16 0 -8 -4 -12 -10 -9 -5 3 -10 1 -10 -5 0 -6 -4 -9 -9 -6 -5 3
-12 -1 -15 -10 -3 -8 -10 -12 -16 -9 -5 3 -10 -1 -10 -9 0 -10 -7 -13 -20 -11
-11 2 -19 1 -16 -3 2 -4 -2 -12 -9 -19 -11 -10 -15 -10 -18 0 -4 9 -6 9 -6 -1
-1 -12 -48 -37 -63 -34 -5 1 -8 -3 -8 -8 0 -5 -3 -9 -7 -8 -5 0 -16 -2 -25 -5
-10 -4 -26 -10 -35 -14 -10 -3 -20 -7 -23 -7 -3 -1 -9 -4 -15 -7 -5 -4 -18 -5
-28 -4 -9 2 -38 -8 -65 -21 -26 -13 -42 -24 -37 -24 6 0 2 -5 -8 -11 -9 -6
-15 -14 -12 -20 4 -5 -1 -9 -9 -9 -10 0 -13 -6 -9 -17 4 -10 2 -14 -4 -10 -6
4 -14 -3 -18 -16 -4 -12 -8 -25 -10 -29 -1 -5 -3 -13 -4 -19 0 -5 -5 -8 -10
-5 -5 4 -7 -4 -3 -16 3 -12 1 -19 -4 -15 -6 3 -11 -4 -11 -15 -1 -12 -6 -24
-10 -27 -10 -7 -15 -27 -16 -63 -1 -16 -5 -28 -8 -28 -3 0 -6 -31 -6 -70 1
-42 5 -70 11 -70 6 0 4 -5 -4 -10 -8 -5 -10 -10 -5 -10 6 0 11 -9 12 -20 1
-11 9 -27 17 -36 9 -8 16 -20 16 -25 0 -5 6 -8 13 -6 6 1 11 -3 10 -8 -2 -11
6 -13 57 -18 14 -1 28 -6 31 -10 3 -4 18 -3 32 2 18 7 27 7 27 0 0 -6 8 -6 21
1 11 7 23 9 26 6 3 -3 12 2 20 10 9 8 21 13 28 10 8 -3 16 2 19 10 3 9 10 13
15 10 5 -3 11 1 15 9 3 8 12 15 20 15 7 0 17 7 20 16 3 8 10 12 16 9 6 -3 13
1 16 9 3 9 12 16 20 16 8 0 14 5 14 11 0 5 5 7 10 4 6 -3 10 -1 10 4 0 6 7 11
15 11 8 0 15 5 15 11 0 5 5 7 10 4 6 -3 10 -1 10 5 0 7 7 10 15 7 8 -4 17 -1
21 5 5 7 2 8 -6 3 -9 -5 -11 -4 -6 3 4 7 16 12 26 12 10 0 26 7 34 16 9 8 16
12 16 8 0 -4 8 0 18 9 10 10 22 14 25 10 4 -3 7 -1 7 5 0 6 9 9 20 7 11 -2 24
3 28 12 5 8 12 14 15 14 19 -3 28 0 23 7 -2 4 4 9 15 10 43 4 49 6 49 14 0 4
3 7 8 6 4 -1 17 3 28 10 12 6 24 8 28 5 3 -3 6 -1 6 6 0 7 5 9 10 6 6 -3 10
-1 10 5 0 6 11 5 29 -5 22 -11 28 -20 24 -36 -3 -11 -12 -23 -19 -26 -8 -3
-12 -8 -9 -13 2 -4 -9 -19 -25 -34 -17 -14 -30 -23 -30 -20 0 4 -12 -6 -27
-22 -15 -16 -31 -29 -37 -29 -6 -1 -10 -6 -9 -13 2 -7 -6 -12 -18 -12 -11 0
-18 -4 -14 -9 3 -5 -5 -13 -17 -17 -13 -4 -30 -14 -38 -24 -16 -18 -50 -34
-63 -31 -5 1 -5 -3 -2 -9 4 -7 -2 -14 -14 -17 -12 -3 -21 -9 -21 -14 0 -5 -7
-9 -15 -9 -8 0 -15 -5 -15 -11 0 -6 -7 -8 -16 -5 -8 3 -13 2 -10 -3 6 -8 -43
-36 -57 -32 -5 1 -6 -2 -3 -7 3 -5 -12 -18 -34 -28 -22 -10 -40 -22 -40 -26 0
-5 -7 -8 -15 -8 -8 0 -23 -9 -34 -21 -11 -12 -24 -18 -30 -15 -5 3 -12 -2 -15
-11 -6 -18 -49 -43 -74 -43 -7 0 -10 -5 -6 -12 5 -8 2 -9 -9 -5 -9 3 -19 2
-22 -4 -4 -5 -11 -7 -16 -4 -5 4 -9 2 -9 -3 0 -6 -10 -10 -22 -10 -13 0 -45
-3 -73 -7 -27 -3 -60 -6 -72 -6 -13 1 -23 -3 -23 -7 0 -10 -51 -9 -67 1 -6 4
-13 2 -15 -4 -2 -7 -26 -12 -61 -12 -31 1 -57 -3 -57 -8 0 -5 -4 -9 -10 -9
-11 0 -50 -36 -50 -46 0 -3 6 -2 13 1 6 4 5 1 -4 -7 -9 -7 -15 -25 -15 -40 1
-16 -1 -28 -5 -28 -3 0 -3 -20 1 -45 5 -33 16 -54 41 -78 47 -45 87 -69 101
-61 6 4 8 3 5 -3 -4 -6 1 -17 10 -24 14 -12 16 -12 8 1 -8 13 -7 13 8 1 9 -7
17 -10 17 -6 0 4 7 2 15 -5 8 -6 19 -9 25 -5 5 3 10 2 10 -4 0 -6 7 -7 17 -4
9 4 14 2 10 -3 -3 -6 4 -10 16 -11 12 -1 33 -4 47 -7 52 -11 130 -14 130 -5 0
6 6 7 13 2 14 -9 127 -11 127 -2 0 3 12 5 28 4 15 -1 33 3 41 9 12 9 13 8 6
-4 -5 -9 1 -7 15 5 13 11 20 14 16 8 -8 -14 6 -18 18 -6 4 5 17 8 29 8 14 1
21 6 19 15 -3 12 -1 12 9 3 10 -10 17 -9 33 5 14 12 17 13 11 2 -8 -13 -7 -13
8 -1 10 8 20 11 23 8 4 -3 13 1 22 9 12 13 16 13 23 2 7 -11 9 -11 9 0 0 7 5
10 10 7 6 -3 10 -1 10 6 0 8 4 8 15 -1 12 -10 15 -10 15 0 0 7 7 10 15 6 8 -3
15 -2 15 3 0 4 16 7 35 6 19 0 35 2 35 6 0 4 8 6 18 4 9 -1 23 2 30 8 8 6 12
6 12 -2 0 -13 22 -10 32 4 5 6 8 5 8 -3 0 -9 5 -10 19 -2 14 7 21 6 24 -3 4
-9 6 -9 6 1 1 7 6 10 12 6 6 -3 15 0 20 7 5 8 9 9 9 4 0 -6 19 -10 45 -8 26 1
44 -1 41 -5 -2 -4 11 -7 29 -8 20 0 31 4 28 9 -3 6 -1 7 4 4 6 -4 27 -9 47
-12 27 -3 35 -1 31 8 -4 7 -1 5 7 -3 7 -8 25 -14 40 -12 15 2 37 -2 49 -8 17
-10 20 -9 14 1 -6 8 -4 10 4 5 7 -5 27 -10 44 -12 18 -3 45 -9 60 -14 17 -6
26 -6 22 0 -4 6 4 6 20 0 15 -6 31 -8 35 -5 5 3 13 -3 19 -12 6 -10 11 -12 11
-6 0 13 21 14 30 1 3 -4 25 -9 48 -10 23 -2 42 -5 42 -8 0 -5 19 -9 58 -12 6
-1 12 -4 12 -8 0 -3 8 -7 18 -8 9 -1 32 -3 50 -5 19 -2 38 -10 43 -18 7 -12 9
-12 9 1 0 13 2 13 9 1 9 -14 27 -19 81 -24 14 -1 28 -6 31 -10 3 -4 16 -9 27
-10 12 -1 22 -4 22 -7 0 -4 6 -7 13 -8 43 -6 57 -9 63 -15 4 -4 16 -7 26 -7
10 0 18 -4 18 -9 0 -6 9 -8 20 -6 11 2 20 0 20 -5 0 -4 11 -7 25 -6 13 2 22
-1 19 -5 -5 -9 10 -13 30 -10 5 1 16 -5 26 -14 13 -12 19 -13 22 -4 3 8 9 7
20 -5 9 -9 24 -16 32 -16 9 0 16 -5 16 -11 0 -5 4 -7 10 -4 5 3 23 -1 40 -10
16 -8 30 -13 30 -9 0 4 6 1 13 -5 8 -6 17 -8 20 -4 4 3 7 1 7 -6 0 -7 4 -10 9
-6 5 3 12 1 16 -5 4 -6 11 -8 16 -5 5 4 9 1 9 -4 0 -6 9 -11 20 -11 12 0 33
-8 47 -17 15 -10 24 -12 20 -6 -6 9 -3 11 7 7 9 -3 16 -11 16 -16 0 -6 7 -8
15 -4 8 3 15 0 15 -6 0 -6 3 -9 6 -5 4 3 13 -1 22 -9 12 -13 16 -13 23 -2 5 8
9 9 9 2 0 -11 29 -25 55 -28 6 -1 12 -4 15 -8 6 -7 52 -19 82 -21 9 -1 15 -4
12 -8 -2 -4 3 -10 12 -13 10 -4 13 -2 8 7 -6 9 -4 9 8 -1 9 -7 30 -14 47 -15
17 -1 31 -5 31 -9 0 -4 8 -7 18 -7 46 -2 62 -6 62 -15 0 -5 3 -6 7 -3 3 4 13
1 21 -6 13 -10 14 -9 7 2 -6 11 -5 12 6 5 8 -5 22 -7 32 -6 9 2 17 -1 17 -5 0
-5 27 -9 59 -8 33 0 57 -3 55 -6 -2 -4 3 -9 11 -13 8 -3 15 0 15 6 0 7 4 7 14
-1 10 -9 16 -9 21 -1 4 7 11 8 18 1 15 -12 99 -17 115 -7 7 4 12 4 12 -1 0 -4
14 -8 30 -8 17 0 30 3 30 7 0 4 11 3 25 -2 17 -6 25 -6 25 1 0 6 5 7 11 4 15
-10 99 -12 99 -3 0 4 11 3 25 -2 17 -6 25 -6 25 1 0 6 5 7 11 4 14 -9 79 -12
79 -4 0 3 11 5 25 4 14 -2 27 1 31 6 3 5 13 5 25 -1 14 -8 19 -7 19 2 0 8 3 9
11 1 12 -12 61 -5 53 8 -3 5 0 9 5 9 6 0 11 -4 11 -8 0 -5 15 -7 33 -5 44 5
115 14 157 19 19 3 49 6 65 7 17 1 35 5 40 8 6 3 23 6 39 7 16 1 35 7 43 14
11 9 17 9 24 -3 5 -8 9 -9 9 -4 0 6 17 12 37 13 20 2 44 8 52 15 12 10 13 9 6
-3 -8 -13 -7 -13 8 -1 9 7 17 10 17 5 0 -4 5 -3 11 3 6 6 18 9 25 6 8 -3 20 0
27 6 8 6 23 9 34 7 11 -3 33 2 47 9 19 10 24 11 19 2 -4 -8 -1 -7 10 1 9 8 21
11 27 7 5 -3 10 -2 10 4 0 5 8 8 18 6 9 -1 24 4 34 12 11 10 18 11 23 3 5 -8
13 -6 28 7 11 10 17 13 13 6 -6 -11 72 24 84 38 3 3 13 8 23 12 10 4 15 11 12
17 -3 5 -2 10 4 10 6 0 8 7 5 15 -4 8 -1 15 5 15 13 0 10 22 -4 33 -6 4 -4 11
5 17 13 8 12 10 -4 10 -12 0 -16 5 -12 15 3 8 0 15 -6 15 -7 0 -23 12 -35 27
-13 14 -23 23 -23 20 0 -4 -9 2 -20 13 -12 12 -25 18 -30 15 -6 -4 -10 -1 -10
5 0 6 -5 8 -10 5 -6 -3 -13 0 -16 8 -3 8 -13 14 -22 13 -9 -2 -22 3 -27 11 -6
8 -25 15 -42 15 -19 1 -30 5 -26 11 4 6 0 8 -10 4 -10 -3 -17 -2 -17 3 0 5 -7
6 -17 3 -9 -4 -14 -2 -10 3 3 6 -4 11 -16 11 -31 2 -55 8 -63 16 -4 4 -13 2
-21 -4 -9 -9 -13 -8 -13 0 0 6 -17 11 -40 11 -22 0 -40 5 -40 11 0 5 -6 7 -12
3 -19 -12 -48 -12 -48 -1 0 5 -7 4 -15 -3 -9 -7 -15 -8 -15 -2 0 13 -103 12
-112 -2 -5 -7 -8 -7 -8 3 0 11 -3 11 -15 1 -12 -10 -15 -10 -15 0 0 10 -3 10
-14 1 -11 -9 -16 -9 -22 0 -5 9 -10 8 -19 -5 -7 -9 -17 -16 -21 -15 -5 1 -11
0 -14 -1 -13 -7 -201 -6 -205 1 -3 4 -14 6 -25 4 -11 -2 -22 0 -25 5 -3 5 -12
7 -20 3 -8 -3 -15 -1 -15 4 0 5 -12 10 -27 11 -15 1 -29 5 -32 10 -3 4 -17 9
-30 10 -14 2 -36 9 -50 15 -14 5 -32 9 -40 8 -7 -1 -11 2 -8 6 3 5 -5 9 -19 9
-13 0 -24 -4 -24 -9 0 -4 -5 -5 -11 -1 -8 5 -8 1 0 -13 6 -11 7 -23 4 -27 -3
-3 1 -6 9 -6 9 0 18 -4 20 -8 2 -4 18 -19 37 -32 19 -13 31 -17 26 -9 -4 7 3
4 17 -9 13 -12 27 -20 30 -17 2 3 5 -2 5 -10 0 -8 -3 -13 -5 -10 -3 3 -11 -3
-19 -13 -9 -10 -11 -11 -7 -2 6 12 5 13 -7 4 -8 -6 -24 -10 -36 -9 -13 1 -23
-1 -23 -5 0 -10 -74 -6 -82 5 -5 7 -8 7 -8 0 0 -7 -33 -10 -90 -8 -66 2 -90 0
-91 -10 0 -6 -4 -3 -9 8 -6 13 -9 15 -9 5 -1 -13 -2 -13 -11 0 -5 8 -10 10
-10 5 0 -14 -67 -10 -85 5 -10 8 -15 9 -15 2 0 -6 -9 -10 -20 -9 -11 1 -20 5
-20 10 0 4 -13 6 -30 3 -16 -2 -30 0 -30 5 0 4 -6 6 -14 3 -8 -3 -17 0 -21 6
-5 8 -11 8 -21 -1 -8 -6 -14 -7 -14 -2 0 8 -25 13 -72 16 -10 1 -18 5 -18 10
0 5 -6 7 -14 4 -7 -3 -19 0 -26 6 -10 9 -11 9 -5 -2 5 -9 -1 -7 -19 4 -20 14
-26 14 -26 4 0 -10 -2 -11 -8 -2 -7 12 -52 25 -84 25 -10 -1 -20 4 -23 9 -4 5
-11 7 -16 4 -5 -4 -9 -2 -9 3 0 5 -6 9 -12 10 -21 1 -42 7 -53 13 -5 4 -18 5
-27 4 -11 -2 -18 3 -18 13 0 15 -2 15 -10 2 -6 -10 -10 -11 -10 -2 0 6 -11 12
-25 12 -14 0 -25 4 -25 8 0 5 -13 8 -30 7 -17 -1 -27 2 -23 8 4 6 0 8 -10 4
-10 -3 -17 -2 -17 3 0 6 -11 10 -25 10 -14 0 -25 5 -25 11 0 8 -5 7 -16 -1
-12 -11 -15 -11 -12 1 2 8 -3 13 -11 11 -7 -1 -18 1 -25 6 -6 5 -19 8 -29 7
-10 -2 -21 3 -24 11 -4 11 -9 12 -19 3 -10 -8 -14 -8 -14 0 0 6 -9 11 -20 11
-11 0 -20 5 -20 11 0 8 -4 8 -14 0 -11 -9 -15 -9 -18 0 -2 6 -16 12 -31 12
-15 0 -27 3 -27 8 0 5 -10 9 -22 9 -42 0 -58 3 -58 12 0 5 -4 6 -10 3 -6 -3
-10 0 -10 7 0 9 -3 9 -10 -2 -7 -11 -10 -11 -10 -2 0 7 -5 10 -10 7 -6 -4 -16
-2 -23 3 -7 5 -25 10 -41 10 -15 0 -32 6 -37 13 -7 12 -9 11 -9 -1 0 -12 -2
-13 -9 -1 -5 7 -14 10 -20 7 -6 -4 -11 -3 -11 2 0 6 -9 8 -20 5 -13 -3 -20 0
-20 8 0 11 -2 11 -10 -1 -6 -10 -10 -11 -10 -2 0 6 -11 12 -24 12 -14 0 -28 5
-31 10 -4 7 -12 7 -25 0 -15 -8 -21 -6 -29 7 -7 12 -10 14 -11 4 0 -11 -3 -11
-15 -1 -8 6 -19 9 -24 6 -5 -4 -12 -2 -16 4 -3 5 -16 10 -28 10 -47 0 -77 4
-77 10 0 4 -6 7 -12 8 -44 3 -95 10 -108 15 -15 5 -32 7 -77 8 -13 1 -23 4
-23 8 0 4 -16 8 -35 10 -71 3 -85 5 -85 11 0 3 -9 6 -20 7 -11 1 -20 -4 -20
-10 0 -8 -2 -9 -8 -1 -4 6 -24 14 -46 17 -49 8 -56 15 -32 33 11 8 17 14 13
14 -4 0 13 20 38 45 25 25 50 43 55 40 6 -3 10 -1 10 5 0 14 25 40 39 40 6 0
16 9 23 20 7 11 18 20 25 20 7 0 17 9 23 20 6 11 15 18 20 15 5 -3 13 3 19 12
6 10 11 14 11 10 0 -4 11 4 25 18 14 14 32 25 40 25 8 0 15 5 15 10 0 6 7 10
16 10 8 0 12 5 9 10 -3 6 1 10 9 10 9 0 16 5 16 11 0 5 5 7 10 4 6 -3 10 -2
10 3 0 5 13 15 29 22 16 6 32 18 35 27 3 8 10 11 16 8 5 -3 10 -1 10 5 0 6 5
8 10 5 6 -3 13 1 16 9 3 9 12 16 20 16 8 0 14 5 14 11 0 5 5 7 10 4 6 -3 13 1
16 9 3 9 10 13 15 10 5 -3 9 0 9 5 0 6 5 11 11 11 14 0 59 47 59 61 0 5 4 9
10 9 5 0 9 3 9 8 -1 4 0 9 1 12 1 3 3 30 4 60 3 56 -20 116 -50 133 -8 5 -11
13 -8 19 4 7 2 8 -4 4 -7 -4 -12 -2 -12 3 0 6 -6 11 -14 11 -8 0 -17 7 -20 16
-3 9 -13 14 -20 11 -8 -3 -17 1 -20 9 -3 9 -10 12 -16 9 -5 -3 -10 -3 -10 2 0
4 -11 13 -25 20 -18 8 -23 8 -18 0 4 -6 -7 -1 -24 11 -17 12 -37 22 -45 22 -8
0 -20 6 -27 13 -11 10 -12 9 -6 -3 7 -12 6 -13 -7 -3 -8 7 -18 10 -21 6 -4 -3
-7 0 -7 8 0 11 -2 11 -10 -1 -5 -8 -10 -10 -10 -4 0 7 -7 15 -16 18 -10 4 -13
2 -8 -7 6 -9 3 -8 -8 1 -14 11 -40 18 -82 21 -5 1 -2 9 5 18 12 15 12 16 -1 8
-8 -4 -4 3 10 17 24 24 79 90 91 110 3 5 9 9 13 9 3 -1 6 2 5 5 0 4 12 15 28
25 15 10 25 19 21 19 -5 0 0 8 10 18 9 11 19 18 22 16 3 -1 11 4 18 12 7 8 11
14 8 14 -3 0 5 11 17 23 12 13 24 23 27 23 3 -1 6 3 7 8 1 5 13 16 27 26 15 9
25 18 23 21 -2 2 8 15 22 29 13 14 21 19 17 13 -5 -9 -2 -11 8 -7 9 3 15 9 13
13 -1 3 13 22 32 41 19 19 31 28 27 20 -4 -8 3 -3 17 11 13 15 34 32 46 38 12
7 19 15 17 19 -3 5 4 8 14 9 11 1 19 -1 19 -5 -3 -19 2 -33 10 -28 5 4 7 -3 4
-14 -3 -11 -1 -20 5 -20 6 0 9 -9 7 -20 -2 -11 0 -20 5 -20 5 0 7 -9 5 -20 -3
-14 2 -20 13 -20 15 0 15 -2 2 -10 -8 -5 -10 -10 -4 -10 7 0 14 -10 18 -23 3
-12 13 -31 23 -43 10 -11 19 -26 21 -34 2 -8 9 -21 15 -28 6 -8 12 -21 14 -30
1 -9 7 -18 13 -20 5 -2 8 -7 5 -12 -3 -4 2 -20 10 -36 7 -15 12 -31 9 -36 -3
-4 -1 -8 3 -8 5 0 10 -8 11 -17 2 -27 10 -68 12 -68 2 0 3 -11 4 -25 1 -14 4
-29 8 -35 3 -5 4 -18 3 -27 -2 -10 0 -18 4 -18 9 0 8 -62 -2 -78 -6 -8 -4 -11
4 -10 9 2 12 -16 12 -64 0 -38 3 -68 6 -68 3 0 7 -13 7 -30 1 -18 -2 -27 -9
-23 -6 4 -7 1 -2 -7 4 -7 10 -33 11 -57 5 -56 11 -90 19 -103 3 -5 0 -10 -7
-10 -10 0 -10 -2 -1 -8 7 -5 14 -20 15 -35 1 -15 6 -27 10 -27 4 0 8 -11 8
-25 0 -14 4 -25 10 -25 5 0 7 -7 4 -15 -4 -8 -1 -15 7 -15 7 0 10 -3 6 -6 -7
-7 28 -80 43 -89 5 -3 10 -15 10 -26 0 -11 7 -19 16 -19 10 0 14 -6 11 -14 -3
-8 1 -17 10 -20 9 -4 13 -9 10 -12 -3 -3 4 -16 16 -29 40 -41 62 -70 59 -78
-1 -5 2 -6 8 -2 5 3 10 1 10 -5 0 -6 5 -8 10 -5 6 3 10 -2 10 -11 0 -10 3 -14
6 -11 4 4 15 -3 25 -15 11 -11 19 -18 19 -13 0 4 8 1 17 -6 15 -12 16 -12 8 1
-8 13 -7 13 10 0 23 -19 21 -19 39 5 12 15 16 16 16 5 1 -20 33 39 35 65 1 11
-1 22 -6 25 -4 3 1 17 13 30 11 14 17 19 13 12 -3 -6 -1 -12 4 -12 6 0 11 3
11 8 0 7 511 7 578 0 18 -3 36 0 38 4 3 5 12 4 20 -3 8 -6 14 -8 14 -4 0 4 8
1 17 -6 14 -12 16 -12 8 0 -6 11 -5 12 6 5 22 -13 49 -15 49 -3 0 8 5 8 15 -1
8 -7 15 -9 15 -5 0 4 7 2 15 -5 12 -10 15 -10 15 0 0 8 4 9 13 3 6 -5 27 -8
45 -7 17 1 30 -1 27 -6 -6 -9 15 -8 31 3 6 3 14 3 18 -1 4 -4 22 -8 39 -9 18
0 32 -2 32 -3 0 -1 12 -3 28 -4 15 -1 27 2 27 6 0 4 6 7 13 5 6 -1 11 4 10 10
-2 7 0 12 5 12 19 -3 33 2 27 11 -3 6 -1 10 4 10 6 0 11 9 11 20 0 11 4 20 10
20 12 0 9 22 -5 32 -7 5 -6 8 0 8 11 0 9 61 -2 90 -4 8 -5 21 -4 29 1 7 -2 10
-8 6 -6 -3 -9 0 -5 8 3 8 -2 17 -11 21 -9 3 -13 10 -10 16 3 5 1 10 -4 10 -6
0 -11 7 -11 15 0 8 -5 15 -11 15 -5 0 -7 5 -4 10 3 6 -1 10 -9 10 -9 0 -17 6
-17 13 -1 6 -3 22 -4 34 -1 12 1 21 4 20 3 -1 7 3 9 8 2 6 10 17 18 26 8 9 11
19 7 22 -3 4 1 7 10 7 9 0 19 5 23 12 5 7 3 8 -6 3 -13 -8 28 55 43 66 4 3 17
23 29 45 11 21 28 45 37 52 12 10 12 11 1 6 -8 -4 -2 6 14 23 16 17 29 34 29
39 0 5 7 14 16 21 9 7 13 13 9 13 -5 0 0 8 10 18 26 28 57 66 62 77 3 5 9 9
13 7 5 -1 7 3 5 10 -2 6 4 20 14 30 10 10 16 23 13 29 -4 5 -3 8 2 7 4 -2 9 0
10 5 2 4 10 21 19 38 11 23 12 29 2 23 -11 -6 -11 -5 0 9 8 9 15 26 17 39 1
13 6 31 10 41 4 9 3 17 -1 17 -5 0 -10 15 -10 33 -3 57 -8 87 -16 87 -4 0 -8
9 -8 20 0 11 -5 20 -11 20 -5 0 -7 5 -4 10 3 6 1 10 -5 10 -6 0 -8 4 -5 10 3
6 1 10 -6 10 -7 0 -10 3 -6 6 3 3 -3 15 -13 27 -11 11 -17 25 -13 30 3 6 2 8
-3 5 -11 -7 -35 17 -27 26 4 3 -1 6 -10 6 -9 0 -17 7 -17 16 0 8 -4 13 -8 10
-5 -3 -15 6 -22 19 -7 13 -17 22 -22 19 -4 -3 -8 -1 -8 5 0 5 -9 13 -20 16
-11 4 -18 11 -15 16 4 5 -1 9 -9 9 -8 0 -20 9 -26 20 -6 10 -16 17 -24 14 -7
-3 -16 2 -20 11 -3 10 -12 15 -21 11 -8 -3 -15 -2 -15 2 0 4 -9 13 -21 20 -17
11 -20 11 -13 0 4 -8 -1 -6 -12 3 -10 9 -25 14 -31 12 -7 -3 -13 0 -13 6 0 6
-7 7 -17 4 -9 -4 -14 -2 -11 3 4 5 -29 9 -78 9 -46 0 -84 -3 -84 -7 0 -5 -3
-7 -7 -6 -13 3 -63 -24 -63 -34 0 -4 -9 -8 -21 -8 -11 0 -17 -4 -14 -10 6 -9
-8 -14 -28 -11 -5 1 -6 -3 -3 -8 6 -10 -22 -26 -54 -30 -5 0 -9 -6 -7 -12 1
-6 -7 -13 -18 -15 -11 -1 -24 -9 -30 -17 -5 -8 -13 -15 -18 -15 -4 -1 -20 -8
-36 -16 -16 -9 -31 -13 -35 -11 -3 3 -4 2 -2 -1 8 -10 -18 -32 -31 -27 -7 3
-13 0 -13 -7 0 -6 -4 -8 -10 -5 -5 3 -10 1 -10 -5 0 -6 -4 -8 -10 -5 -5 3 -10
1 -10 -5 0 -6 -4 -8 -10 -5 -5 3 -10 2 -10 -3 0 -4 -16 -14 -35 -22 -19 -8
-35 -18 -35 -23 0 -5 -7 -6 -16 -3 -8 3 -12 2 -9 -4 3 -6 -3 -10 -14 -10 -12
0 -21 -5 -21 -11 0 -5 -4 -7 -10 -4 -5 3 -10 1 -10 -6 0 -6 -8 -9 -20 -6 -11
3 -18 2 -16 -1 6 -10 -17 -27 -34 -27 -8 0 -21 -6 -28 -15 -8 -8 -10 -9 -7 -2
4 8 -11 2 -33 -12 -22 -14 -43 -22 -46 -19 -3 4 -13 -2 -21 -13 -8 -10 -15
-15 -15 -10 0 5 -7 3 -15 -4 -8 -6 -18 -9 -24 -6 -5 3 -12 -2 -15 -11 -6 -14
-8 -14 -20 3 -8 10 -12 24 -9 31 3 7 0 13 -6 13 -6 0 -11 9 -11 20 0 11 -5 20
-11 20 -5 0 -8 4 -4 9 3 6 -2 14 -11 19 -15 8 -14 10 2 17 11 4 39 10 64 12
24 2 50 9 57 15 8 6 16 8 20 4 3 -3 15 2 26 11 11 10 17 12 13 6 -5 -9 -2 -11
8 -7 9 3 16 11 16 16 0 6 7 7 15 4 9 -3 18 1 21 9 3 7 12 11 20 8 8 -3 14 0
14 7 0 6 5 8 10 5 6 -3 10 -1 10 4 0 6 6 10 13 8 6 -1 11 3 10 10 -2 7 6 10
17 8 12 -2 18 0 15 5 -3 5 6 12 20 16 14 3 25 10 25 16 0 5 5 6 10 3 6 -3 13
1 16 9 3 9 10 13 15 10 5 -3 9 -1 9 4 0 5 23 21 50 36 28 15 48 32 45 37 -4 5
1 9 9 9 8 0 24 10 36 22 11 12 20 18 20 13 0 -4 9 2 20 15 11 13 20 20 20 17
0 -3 12 5 26 18 15 14 31 25 36 25 5 0 6 5 3 10 -6 9 8 14 28 11 4 0 7 4 7 9
0 13 32 45 54 53 9 4 14 12 11 17 -4 6 -3 9 2 8 8 -3 33 15 56 40 42 47 96
100 99 98 1 -1 13 8 25 21 12 13 20 23 18 23 -2 0 8 13 23 28 15 15 30 27 34
25 4 -2 9 6 13 17 3 11 13 20 21 20 8 0 13 4 9 9 -3 5 4 12 15 16 11 4 19 9
17 13 -4 9 71 81 78 74 4 -5 9 13 7 29 -1 4 12 12 28 19 27 11 35 21 31 43 0
4 5 7 13 7 8 0 18 5 22 12 5 7 2 9 -7 4 -8 -4 -6 -1 3 7 10 8 14 18 10 22 -4
5 0 6 8 3 11 -4 16 1 17 13 1 11 9 27 18 36 9 9 14 24 12 34 -3 11 -1 19 5 19
5 0 6 5 3 10 -3 6 -2 10 4 10 8 0 8 20 1 40 -1 3 -2 13 -1 22 1 9 -6 29 -16
45 -10 15 -13 24 -6 20 7 -5 6 4 -3 23 -9 16 -20 30 -25 30 -5 0 -8 3 -8 8 3
19 -2 33 -11 27 -6 -3 -7 1 -4 9 4 11 0 16 -11 16 -9 0 -14 4 -11 9 3 4 -3 16
-14 26 -11 10 -20 24 -20 32 0 7 -5 13 -10 13 -6 0 -27 17 -48 39 -37 38 -80
67 -94 63 -5 -1 -8 3 -8 9 0 5 -4 7 -10 4 -5 -3 -10 -2 -10 4 0 5 -8 8 -17 7
-10 -2 -21 1 -24 6 -3 5 -12 10 -20 11 -8 2 -18 5 -24 8 -5 4 -20 5 -32 4 -13
-1 -23 1 -23 5 0 3 -18 5 -40 4 -22 -1 -40 1 -40 5 0 9 -102 7 -117 -2 -7 -4
-14 -3 -18 3 -3 5 -13 10 -21 10 -8 0 -13 -4 -10 -9 4 -5 -3 -7 -14 -4 -32 8
-24 27 26 58 25 16 54 40 65 53 10 14 19 21 19 16 0 -5 5 -1 11 9 6 9 14 15
20 12 5 -4 9 1 9 9 0 9 7 16 16 16 9 0 14 6 12 12 -3 7 3 21 13 31 10 11 16
28 14 38 -2 11 0 17 6 14 17 -11 14 81 -4 104 -9 12 -9 13 1 7 6 -4 12 -3 12
2 0 6 -7 12 -15 16 -8 3 -12 12 -9 21 3 8 2 15 -4 15 -9 0 -25 37 -23 53 1 4
-6 7 -15 7 -8 0 -12 5 -9 10 3 6 1 10 -6 10 -7 0 -10 3 -6 6 3 3 -5 17 -19 31
-13 13 -24 28 -24 33 0 6 -7 10 -15 10 -8 0 -20 9 -27 20 -7 11 -17 20 -22 20
-5 0 -21 10 -34 23 -14 12 -22 16 -18 9 7 -11 4 -11 -15 0 -13 7 -27 18 -31
23 -4 6 -8 6 -8 1 0 -4 -11 -1 -24 7 -18 12 -26 13 -36 4 -9 -8 -11 -8 -7 -1
8 13 -20 27 -34 18 -5 -3 -9 -1 -9 5 0 6 -7 8 -15 5 -8 -4 -15 -2 -15 4 0 6
-9 8 -20 5 -11 -3 -20 -1 -20 3 0 5 -21 10 -47 12 -26 2 -51 8 -55 15 -6 9 -8
8 -8 -3 0 -13 -1 -13 -10 0 -9 13 -10 13 -10 0 0 -11 -3 -11 -8 -3 -4 6 -30
14 -57 16 -28 2 -58 7 -68 12 -9 4 -26 5 -37 2 -11 -3 -20 -2 -20 2 0 4 -17 8
-37 10 -21 1 -48 3 -60 4 -13 1 -23 6 -23 10 0 5 -5 5 -10 2 -6 -4 -7 -12 -4
-18 4 -7 -4 -2 -18 11 -13 12 -28 19 -32 15 -12 -12 -90 -11 -98 1 -5 8 -8 7
-8 -1 0 -6 -8 -10 -17 -9 -10 2 -22 -2 -28 -8 -11 -13 -20 -45 -10 -34 4 4 17
-3 29 -15 11 -12 41 -36 66 -52 25 -17 48 -34 52 -40 4 -5 8 -6 8 -2 0 5 12
-1 26 -12 15 -12 33 -21 40 -21 8 0 14 -4 14 -10 0 -5 7 -10 15 -10 8 0 15 -5
15 -11 0 -5 5 -7 10 -4 6 3 10 1 10 -5 0 -6 4 -8 10 -5 6 3 10 1 10 -4 0 -6 9
-11 21 -11 11 0 18 -4 14 -9 -3 -6 4 -15 15 -21 13 -7 19 -18 16 -26 -3 -8 0
-14 6 -14 7 0 7 -4 1 -12 -5 -7 -8 -23 -7 -35 0 -13 -3 -23 -8 -23 -5 0 -6 -4
-3 -10 3 -5 2 -10 -3 -10 -5 0 -9 -7 -10 -15 -1 -8 -3 -22 -4 -30 -1 -8 -5
-15 -10 -15 -4 0 -8 -9 -8 -19 0 -11 -5 -23 -11 -26 -6 -4 -8 -13 -5 -21 3 -8
0 -13 -6 -11 -7 1 -13 -7 -14 -18 -1 -11 -15 -46 -32 -77 -17 -32 -28 -58 -24
-58 4 0 2 -4 -3 -8 -19 -13 -46 -62 -40 -72 4 -6 -3 -14 -15 -18 -12 -4 -22
-12 -22 -17 -1 -26 -19 -56 -30 -49 -7 4 -8 3 -4 -4 4 -7 2 -12 -5 -12 -7 0
-10 -3 -6 -6 3 -3 -5 -16 -19 -29 -13 -12 -24 -28 -24 -35 0 -7 -3 -11 -6 -7
-3 3 -17 -6 -31 -21 -14 -15 -22 -20 -17 -12 6 11 4 10 -7 -2 -9 -9 -19 -14
-23 -11 -3 4 -6 1 -6 -5 0 -7 -8 -12 -18 -12 -9 0 -29 -11 -44 -24 -14 -14
-29 -22 -32 -19 -6 6 -10 -12 -7 -29 0 -5 -6 -8 -14 -8 -8 0 -15 -8 -15 -18 0
-10 -4 -22 -10 -28 -5 -5 -11 -18 -13 -29 -1 -11 -6 -26 -11 -34 -5 -8 -4 -16
4 -21 10 -6 9 -9 -1 -13 -10 -4 -11 -6 -1 -6 9 -1 9 -7 -3 -24 -8 -13 -12 -26
-9 -30 4 -3 7 -38 8 -77 0 -38 4 -70 8 -70 4 0 7 -9 7 -20 1 -11 1 -29 2 -40
0 -11 4 -20 9 -20 5 0 9 -8 9 -17 -1 -38 8 -72 25 -98 10 -15 13 -24 6 -20 -8
5 -7 0 2 -14 7 -12 16 -21 20 -21 4 0 5 -6 2 -14 -3 -7 6 -21 20 -30 15 -9 26
-23 26 -32 0 -8 4 -13 9 -9 5 3 13 0 17 -6 4 -8 9 -7 15 2 8 12 10 12 18 0 6
-10 10 -10 16 -1 6 9 10 9 16 -1 7 -12 9 -12 9 0 0 11 3 11 17 0 11 -10 14
-10 9 -1 -4 6 -4 12 1 13 44 3 68 10 71 19 2 5 9 10 16 10 7 0 25 11 39 24 14
13 28 21 31 18 3 -3 6 0 6 7 0 7 4 10 8 7 5 -3 14 4 22 14 8 10 17 17 22 14 5
-3 7 -1 6 4 -4 13 109 121 118 113 3 -3 4 -1 2 6 -3 12 59 73 75 73 4 0 7 7 7
16 0 8 5 12 10 9 6 -3 10 -1 10 4 0 6 3 10 8 9 11 -4 51 39 44 48 -4 4 -1 4 6
0 8 -5 20 0 30 12 9 10 27 22 40 26 12 4 20 12 17 17 -4 5 1 9 9 9 9 0 16 5
16 11 0 5 4 8 9 5 5 -3 11 1 15 9 3 9 12 12 22 8 11 -4 15 -3 10 5 -4 6 8 16
29 23 19 7 35 17 35 21 0 4 7 8 15 8 8 0 15 4 15 9 0 6 9 8 20 6 11 -2 19 1
17 8 -1 7 6 11 15 11 10 -1 15 3 12 8 -3 5 2 8 12 6 11 -2 18 2 17 9 -2 7 4
10 12 7 8 -4 15 -1 15 6 0 9 3 10 14 1 18 -15 18 -101 0 -108 -8 -3 -11 -9 -8
-14 3 -5 1 -9 -4 -9 -6 0 -9 -8 -8 -17 0 -10 -4 -17 -11 -16 -6 1 -10 -5 -9
-15 2 -9 -4 -22 -13 -29 -9 -6 -16 -16 -16 -21 0 -6 -10 -19 -23 -30 -13 -11
-23 -23 -23 -26 3 -20 0 -26 -9 -21 -5 3 -10 0 -10 -8 0 -8 -7 -18 -16 -21 -8
-3 -12 -10 -9 -16 3 -5 -1 -10 -10 -10 -9 0 -13 -4 -10 -10 3 -5 -1 -10 -9
-10 -8 0 -18 -5 -22 -12 -5 -7 -2 -8 7 -3 8 4 -21 -26 -63 -68 -43 -42 -78
-81 -78 -88 0 -7 -2 -10 -6 -7 -5 6 -118 -102 -119 -114 0 -12 -15 -21 -15 -9
0 7 -5 9 -10 6 -6 -4 -8 -11 -5 -16 4 -5 1 -9 -5 -9 -13 0 -60 -49 -60 -62 0
-5 -4 -7 -9 -3 -5 3 -22 -7 -37 -22 -16 -16 -32 -28 -36 -28 -4 0 -9 -4 -9
-10 -1 -5 -16 -18 -33 -29 -17 -10 -34 -24 -38 -30 -4 -6 -8 -7 -8 -2 0 6 -6
2 -13 -8 -7 -9 -20 -18 -29 -19 -9 -2 -23 -9 -32 -16 -9 -7 -16 -11 -16 -8 0
3 -15 0 -34 -8 -18 -8 -36 -12 -39 -9 -3 3 -12 2 -19 -2 -20 -13 -79 -14 -72
-2 5 7 2 8 -7 2 -8 -5 -23 -9 -34 -9 -11 0 -26 -5 -34 -9 -9 -6 -12 -5 -7 2 3
6 2 13 -4 17 -5 3 -10 2 -10 -4 0 -5 -13 -3 -30 5 -16 9 -34 13 -40 9 -5 -3
-10 -1 -10 4 0 6 -7 11 -15 11 -8 0 -15 5 -15 11 0 5 5 7 10 4 6 -3 10 1 10
10 0 9 5 13 10 10 6 -3 10 -3 10 2 0 11 70 88 79 86 4 -1 7 7 7 17 0 10 -4 16
-9 13 -5 -3 -4 4 2 15 9 17 5 27 -24 62 -19 23 -35 39 -35 36 0 -4 -9 2 -20
12 -25 23 -97 62 -116 62 -8 0 -14 5 -14 10 0 6 -5 10 -11 10 -5 0 -7 -6 -3
-12 4 -7 -2 -5 -13 5 -11 9 -23 14 -26 11 -4 -4 -13 -1 -22 6 -8 7 -21 10 -29
7 -8 -3 -17 -3 -21 1 -3 4 -25 8 -48 9 -23 2 -62 4 -87 6 -25 2 -53 0 -62 -5
-13 -6 -18 -5 -18 4 0 10 -2 10 -9 -1 -5 -7 -14 -10 -20 -7 -6 4 -11 2 -11 -3
0 -6 -7 -11 -15 -11 -9 0 -18 -7 -22 -16 -4 -12 -8 -12 -13 -4 -5 9 -10 6 -15
-9 -5 -18 -9 -20 -21 -10 -11 9 -14 8 -14 -4 0 -9 -5 -19 -12 -23 -7 -5 -8 -3
-3 5 8 14 -35 -7 -46 -23 -4 -4 -21 -9 -39 -11 -18 -1 -36 -8 -41 -16 -5 -8
-9 -10 -9 -5 0 5 -8 2 -17 -5 -15 -12 -16 -12 -8 1 8 13 7 13 -8 1 -9 -7 -17
-10 -17 -7 0 4 -8 2 -18 -3 -20 -11 -52 2 -33 13 7 4 8 14 3 24 -9 18 -9 28 1
52 5 15 7 29 8 83 1 15 6 27 11 27 6 0 8 11 6 25 -3 14 -1 25 3 25 5 0 6 7 3
15 -4 8 -2 15 3 15 5 0 10 10 11 23 1 12 4 31 6 42 3 11 5 24 5 28 1 5 6 5 11
2 6 -3 10 1 10 10 0 9 4 13 10 10 5 -3 7 0 4 8 -3 8 2 17 11 21 9 3 13 10 10
16 -3 5 -1 10 5 10 6 0 8 5 5 10 -6 9 8 14 28 11 4 0 7 5 7 13 0 8 14 27 30
43 17 15 30 34 30 40 0 7 7 13 16 13 8 0 13 3 11 8 -3 4 1 13 9 20 8 7 14 10
14 7 0 -3 16 10 36 29 20 20 41 33 45 30 5 -3 9 0 9 6 0 6 4 9 9 5 5 -3 12 -1
16 5 4 6 11 8 16 5 5 -4 9 -2 9 4 0 6 6 8 14 5 8 -3 17 -1 20 5 4 6 13 8 21 5
7 -3 25 2 39 11 14 10 26 13 26 9 1 -5 9 1 19 13 10 12 22 19 25 15 9 -8 96
88 96 105 0 7 5 13 11 13 5 0 7 5 4 10 -3 6 -2 10 3 10 11 0 12 8 16 98 2 39
-1 72 -5 72 -5 0 -9 6 -9 13 0 7 -9 18 -20 25 -11 7 -20 19 -20 28 0 8 -4 12
-10 9 -5 -3 -10 -1 -10 4 0 6 -7 11 -15 11 -8 0 -15 4 -15 8 0 4 -16 14 -35
21 -19 7 -35 16 -35 19 0 4 -12 9 -27 10 -15 1 -29 5 -32 10 -6 7 -10 8 -54
16 -12 3 -24 5 -27 6 -3 2 -9 2 -13 1 -41 -7 -67 -7 -67 2 0 5 -5 5 -13 -2 -8
-6 -17 -8 -20 -4 -4 3 -7 1 -7 -7 0 -10 -4 -10 -17 1 -11 10 -14 10 -9 2 7
-13 -3 -17 -36 -14 -10 1 -18 -3 -18 -9 0 -6 -4 -9 -9 -6 -6 4 -5 20 1 42 5
20 7 42 4 50 -3 8 -1 14 5 14 6 0 7 5 4 10 -3 6 -2 10 3 10 5 0 8 14 7 30 -1
17 2 30 7 30 6 0 8 7 5 15 -4 8 -2 17 4 20 5 4 7 11 4 16 -4 5 -1 9 4 9 6 0
10 3 10 8 -1 4 0 10 1 15 4 13 6 21 14 60 5 20 12 37 17 37 4 0 6 9 4 20 -2
11 0 22 6 25 5 4 9 17 9 31 0 18 4 23 13 18 9 -6 9 -4 1 7 -6 8 -9 33 -8 57 1
23 -1 40 -5 38 -4 -3 -6 8 -5 25 1 16 -2 29 -8 29 -5 0 -6 5 -3 10 3 6 1 10
-5 10 -7 0 -9 7 -6 16 3 8 2 12 -4 9 -6 -3 -10 1 -10 9 0 9 -4 16 -9 16 -5 0
-13 9 -16 20 -3 11 -14 20 -22 20 -9 0 -14 3 -11 6 5 5 -57 74 -67 74 -2 0
-16 11 -31 25 -14 13 -30 22 -35 19 -5 -3 -9 -2 -9 3 0 9 -48 33 -68 33 -7 0
-10 5 -7 10 3 6 -2 10 -12 10 -10 0 -29 8 -42 17 -14 9 -21 11 -17 5 4 -7 2
-12 -3 -12 -6 0 -11 5 -11 11 0 6 -7 9 -15 5 -8 -3 -15 -2 -15 2 0 4 -10 9
-22 10 -37 3 -73 9 -78 11 -16 9 -60 6 -60 -3 0 -8 -2 -8 -8 0 -9 13 -64 13
-74 -1 -5 -6 -8 -6 -8 2 0 12 -45 12 -57 0 -3 -4 -12 -2 -19 4 -8 6 -14 7 -18
0z m2579 -3021 c-3 -5 3 -10 13 -10 11 0 22 -9 25 -20 3 -11 1 -20 -3 -20 -4
0 -6 -9 -3 -20 3 -12 0 -20 -7 -20 -10 0 -10 -3 0 -15 7 -9 8 -15 2 -15 -5 0
-13 -11 -16 -24 -3 -14 -12 -31 -19 -38 -21 -24 -38 -58 -32 -68 3 -5 -8 -19
-24 -31 -17 -12 -28 -26 -25 -31 3 -4 0 -8 -6 -8 -6 0 -8 -5 -5 -10 4 -6 3 -9
-2 -8 -4 2 -8 1 -9 -2 -1 -15 -61 -65 -73 -61 -9 3 -12 0 -7 -7 4 -7 -6 -18
-28 -29 -20 -9 -36 -20 -36 -24 0 -7 -39 -22 -52 -20 -5 1 -8 -4 -8 -11 0 -6
-3 -8 -6 -5 -4 3 -16 1 -28 -5 -21 -12 -41 -18 -63 -20 -7 -1 -13 -5 -13 -9 0
-4 -9 -6 -20 -4 -11 2 -20 0 -20 -5 0 -5 -8 -9 -17 -9 -16 0 -48 -6 -63 -11
-3 -1 -13 -1 -24 0 -10 1 -16 -2 -13 -7 5 -8 -18 -9 -59 -4 -13 1 -12 63 1 73
6 5 6 8 -2 8 -6 0 -9 9 -6 20 3 11 1 20 -5 20 -6 0 -8 13 -6 30 3 17 1 30 -4
30 -13 0 -10 33 3 42 6 5 5 8 -4 8 -7 0 -11 6 -8 14 3 7 1 18 -4 23 -7 7 1 13
23 18 18 4 35 9 38 10 3 1 19 7 35 13 17 7 38 17 49 23 14 8 16 8 10 -3 -6
-10 -5 -11 8 -1 8 7 18 10 21 6 4 -3 7 -1 7 6 0 8 8 11 20 8 12 -3 18 -1 14 5
-4 6 -1 9 7 6 8 -3 20 1 27 9 8 7 18 11 23 8 5 -4 9 -1 9 6 0 7 3 9 6 6 4 -4
20 3 37 15 17 12 28 17 24 11 -5 -8 0 -8 18 0 14 7 25 16 25 20 0 5 5 5 10 2
6 -3 10 -1 10 5 0 6 5 8 10 5 6 -3 10 -1 10 5 0 6 4 9 9 5 5 -3 15 0 23 7 7 7
20 14 28 16 8 2 21 10 28 19 6 9 12 13 12 9 0 -5 7 -3 15 4 8 6 20 8 26 4 7
-4 9 -3 6 3 -3 5 15 21 41 35 56 31 55 31 47 18z"/>
</g>
</svg>
